# xmcd
#
# Track frame offsets:
#	150
#	16959
#	34266
#	49597
#	65941
#	85762
#	103534
#	116290
#	135356
#	155078
#	173318
#	191712
#	206935
#	221919
#
# Disc length: 3132 seconds
#
# Revision: 0
# Processed by: cddbd v1.5.2PL0 Copyright (c) Steve Scherf et al.
# Submitted via: dBpowerAMP V4.0
#
DISCID=c30c3a0e
DTITLE=Rebecca Lynn Howard - No Rules
DYEAR=2008
DGENRE=Country
TTITLE0=Shakey Ground
TTITLE1=New Twist on an Old Groove
TTITLE2=Do Right Woman, Do Right Man
TTITLE3=Soul Sisters
TTITLE4=What Dying Feels Like
TTITLE5=Better Someday
TTITLE6=Just Let It Burn
TTITLE7=As One as Two can Be
TTITLE8=Sing `Cause I Love To
TTITLE9=Real Love
TTITLE10=I`m Over You
TTITLE11=The Life of a Dollar
TTITLE12=We`re in This Love Together
TTITLE13=Throw It Down
EXTD=
EXTT0=
EXTT1=
EXTT2=
EXTT3=
EXTT4=
EXTT5=
EXTT6=
EXTT7=
EXTT8=
EXTT9=
EXTT10=
EXTT11=
EXTT12=
EXTT13=
PLAYORDER=
